<?xml version="1.0" encoding="us-ascii" standalone="no"?><svg xmlns="http://www.w3.org/2000/svg" xmlns:xlink="http://www.w3.org/1999/xlink" contentStyleType="text/css" height="811px" preserveAspectRatio="none" style="width:810px;height:811px;background:#FFFFFF;" version="1.1" viewBox="0 0 810 811" width="810px" zoomAndPan="magnify"><defs/><g><!--class course--><g id="elem_course"><rect codeLine="1" fill="#F1F1F1" height="96.8906" id="course" rx="2.5" ry="2.5" style="stroke:#181818;stroke-width:0.5;" width="180" x="7" y="39.6"/><ellipse cx="68.75" cy="55.6" fill="#ADD1B2" rx="11" ry="11" style="stroke:#181818;stroke-width:1.0;"/><path d="M72.8594,61.6 L65.1406,61.6 L65.1406,49.2094 L72.8594,49.2094 L72.8594,51.3656 L67.5938,51.3656 L67.5938,54.0375 L72.3594,54.0375 L72.3594,56.1938 L67.5938,56.1938 L67.5938,59.4438 L72.8594,59.4438 L72.8594,61.6 Z " fill="#000000"/><text fill="#000000" font-family="sans-serif" font-size="14" lengthAdjust="spacing" textLength="48" x="89.25" y="60.4467">course</text><line style="stroke:#181818;stroke-width:0.5;" x1="8" x2="186" y1="71.6" y2="71.6"/><ellipse cx="18" cy="85.2484" fill="none" rx="3" ry="3" style="stroke:#038048;stroke-width:1.0;"/><text fill="#000000" font-family="sans-serif" font-size="14" lengthAdjust="spacing" textLength="104" x="27" y="88.5951">id : SERIAL [PK]</text><line style="stroke:#181818;stroke-width:1.0;" x1="8" x2="186" y1="95.8969" y2="95.8969"/><text fill="#000000" font-family="sans-serif" font-size="14" lengthAdjust="spacing" textLength="78" x="13" y="112.892">name : text</text><text fill="#000000" font-family="sans-serif" font-size="14" lengthAdjust="spacing" textLength="168" x="13" y="129.1889">master_remote_url : text</text></g><!--class student--><g id="elem_student"><rect codeLine="7" fill="#F1F1F1" height="162.0781" id="student" rx="2.5" ry="2.5" style="stroke:#181818;stroke-width:0.5;" width="168" x="548" y="7"/><ellipse cx="600.75" cy="23" fill="#ADD1B2" rx="11" ry="11" style="stroke:#181818;stroke-width:1.0;"/><path d="M604.8594,29 L597.1406,29 L597.1406,16.6094 L604.8594,16.6094 L604.8594,18.7656 L599.5938,18.7656 L599.5938,21.4375 L604.3594,21.4375 L604.3594,23.5938 L599.5938,23.5938 L599.5938,26.8438 L604.8594,26.8438 L604.8594,29 Z " fill="#000000"/><text fill="#000000" font-family="sans-serif" font-size="14" lengthAdjust="spacing" textLength="54" x="621.25" y="27.8467">student</text><line style="stroke:#181818;stroke-width:0.5;" x1="549" x2="715" y1="39" y2="39"/><ellipse cx="559" cy="52.6484" fill="none" rx="3" ry="3" style="stroke:#038048;stroke-width:1.0;"/><text fill="#000000" font-family="sans-serif" font-size="14" lengthAdjust="spacing" textLength="104" x="568" y="55.9951">id : SERIAL [PK]</text><line style="stroke:#181818;stroke-width:1.0;" x1="549" x2="715" y1="63.2969" y2="63.2969"/><text fill="#000000" font-family="sans-serif" font-size="14" lengthAdjust="spacing" textLength="110" x="554" y="80.292">first_name : text</text><text fill="#000000" font-family="sans-serif" font-size="14" lengthAdjust="spacing" textLength="109" x="554" y="96.5889">last_name : text</text><text fill="#000000" font-family="sans-serif" font-size="14" lengthAdjust="spacing" textLength="143" x="554" y="112.8857">student_onyen : text</text><text fill="#000000" font-family="sans-serif" font-size="14" lengthAdjust="spacing" textLength="144" x="554" y="129.1826">section_id : INTEGER</text><text fill="#000000" font-family="sans-serif" font-size="14" lengthAdjust="spacing" textLength="156" x="554" y="145.4795">join_date : TIMESTAMP</text><text fill="#000000" font-family="sans-serif" font-size="14" lengthAdjust="spacing" textLength="156" x="554" y="161.7764">exit_date : TIMESTAMP</text></g><!--class assignment--><g id="elem_assignment"><rect codeLine="17" fill="#F1F1F1" height="210.9688" id="assignment" rx="2.5" ry="2.5" style="stroke:#181818;stroke-width:0.5;" width="234" x="262" y="387.38"/><ellipse cx="334.25" cy="403.38" fill="#ADD1B2" rx="11" ry="11" style="stroke:#181818;stroke-width:1.0;"/><path d="M338.3594,409.38 L330.6406,409.38 L330.6406,396.9894 L338.3594,396.9894 L338.3594,399.1456 L333.0938,399.1456 L333.0938,401.8175 L337.8594,401.8175 L337.8594,403.9738 L333.0938,403.9738 L333.0938,407.2238 L338.3594,407.2238 L338.3594,409.38 Z " fill="#000000"/><text fill="#000000" font-family="sans-serif" font-size="14" lengthAdjust="spacing" textLength="81" x="354.75" y="408.2267">assignment</text><line style="stroke:#181818;stroke-width:0.5;" x1="263" x2="495" y1="419.38" y2="419.38"/><ellipse cx="273" cy="433.0284" fill="none" rx="3" ry="3" style="stroke:#038048;stroke-width:1.0;"/><text fill="#000000" font-family="sans-serif" font-size="14" lengthAdjust="spacing" textLength="104" x="282" y="436.3751">id : SERIAL [PK]</text><line style="stroke:#181818;stroke-width:1.0;" x1="263" x2="495" y1="443.6769" y2="443.6769"/><text fill="#000000" font-family="sans-serif" font-size="14" lengthAdjust="spacing" textLength="78" x="268" y="460.672">name : text</text><text fill="#000000" font-family="sans-serif" font-size="14" lengthAdjust="spacing" textLength="137" x="268" y="476.9689">directory_path : text</text><text fill="#000000" font-family="sans-serif" font-size="14" lengthAdjust="spacing" textLength="185" x="268" y="493.2657">created_date : TIMESTAMP</text><text fill="#000000" font-family="sans-serif" font-size="14" lengthAdjust="spacing" textLength="192" x="268" y="509.5626">released_date : TIMESTAMP</text><text fill="#000000" font-family="sans-serif" font-size="14" lengthAdjust="spacing" textLength="222" x="268" y="525.8595">last_modified_date : TIMESTAMP</text><text fill="#000000" font-family="sans-serif" font-size="14" lengthAdjust="spacing" textLength="144" x="268" y="542.1564">section_id : INTEGER</text><text fill="#000000" font-family="sans-serif" font-size="14" lengthAdjust="spacing" textLength="150" x="268" y="558.4532">created_by : INTEGER</text><text fill="#000000" font-family="sans-serif" font-size="14" lengthAdjust="spacing" textLength="187" x="268" y="574.7501">last_modified_by : INTEGER</text><text fill="#000000" font-family="sans-serif" font-size="14" lengthAdjust="spacing" textLength="159" x="268" y="591.047">due_date : TIMESTAMP</text></g><!--class submission--><g id="elem_submission"><rect codeLine="30" fill="#F1F1F1" height="129.4844" id="submission" rx="2.5" ry="2.5" style="stroke:#181818;stroke-width:0.5;" width="222" x="329" y="675.35"/><ellipse cx="396.25" cy="691.35" fill="#ADD1B2" rx="11" ry="11" style="stroke:#181818;stroke-width:1.0;"/><path d="M400.3594,697.35 L392.6406,697.35 L392.6406,684.9594 L400.3594,684.9594 L400.3594,687.1156 L395.0938,687.1156 L395.0938,689.7875 L399.8594,689.7875 L399.8594,691.9438 L395.0938,691.9438 L395.0938,695.1938 L400.3594,695.1938 L400.3594,697.35 Z " fill="#000000"/><text fill="#000000" font-family="sans-serif" font-size="14" lengthAdjust="spacing" textLength="79" x="416.75" y="696.1967">submission</text><line style="stroke:#181818;stroke-width:0.5;" x1="330" x2="550" y1="707.35" y2="707.35"/><ellipse cx="340" cy="720.9984" fill="none" rx="3" ry="3" style="stroke:#038048;stroke-width:1.0;"/><text fill="#000000" font-family="sans-serif" font-size="14" lengthAdjust="spacing" textLength="104" x="349" y="724.3451">id : SERIAL [PK]</text><line style="stroke:#181818;stroke-width:1.0;" x1="330" x2="550" y1="731.6469" y2="731.6469"/><text fill="#000000" font-family="sans-serif" font-size="14" lengthAdjust="spacing" textLength="147" x="335" y="748.642">student_id : INTEGER</text><text fill="#000000" font-family="sans-serif" font-size="14" lengthAdjust="spacing" textLength="174" x="335" y="764.9389">assignment_id : INTEGER</text><text fill="#000000" font-family="sans-serif" font-size="14" lengthAdjust="spacing" textLength="187" x="335" y="781.2357">commit_id : VARCHAR(255)</text><text fill="#000000" font-family="sans-serif" font-size="14" lengthAdjust="spacing" textLength="210" x="335" y="797.5326">submission_time : TIMESTAMP</text></g><!--class extra_time--><g id="elem_extra_time"><rect codeLine="38" fill="#F1F1F1" height="113.1875" id="extra_time" rx="2.5" ry="2.5" style="stroke:#181818;stroke-width:0.5;" width="186" x="617" y="683.49"/><ellipse cx="670.25" cy="699.49" fill="#ADD1B2" rx="11" ry="11" style="stroke:#181818;stroke-width:1.0;"/><path d="M674.3594,705.49 L666.6406,705.49 L666.6406,693.0994 L674.3594,693.0994 L674.3594,695.2556 L669.0938,695.2556 L669.0938,697.9275 L673.8594,697.9275 L673.8594,700.0838 L669.0938,700.0838 L669.0938,703.3338 L674.3594,703.3338 L674.3594,705.49 Z " fill="#000000"/><text fill="#000000" font-family="sans-serif" font-size="14" lengthAdjust="spacing" textLength="71" x="690.75" y="704.3367">extra_time</text><line style="stroke:#181818;stroke-width:0.5;" x1="618" x2="802" y1="715.49" y2="715.49"/><ellipse cx="628" cy="729.1384" fill="none" rx="3" ry="3" style="stroke:#038048;stroke-width:1.0;"/><text fill="#000000" font-family="sans-serif" font-size="14" lengthAdjust="spacing" textLength="104" x="637" y="732.4851">id : SERIAL [PK]</text><line style="stroke:#181818;stroke-width:1.0;" x1="618" x2="802" y1="739.7869" y2="739.7869"/><text fill="#000000" font-family="sans-serif" font-size="14" lengthAdjust="spacing" textLength="147" x="623" y="756.782">student_id : INTEGER</text><text fill="#000000" font-family="sans-serif" font-size="14" lengthAdjust="spacing" textLength="174" x="623" y="773.0789">assignment_id : INTEGER</text><text fill="#000000" font-family="sans-serif" font-size="14" lengthAdjust="spacing" textLength="109" x="623" y="789.3757">time : INTERVAL</text></g><!--class section--><g id="elem_section"><rect codeLine="45" fill="#F1F1F1" height="64.2969" id="section" rx="2.5" ry="2.5" style="stroke:#181818;stroke-width:0.5;" width="130" x="449" y="246.08"/><ellipse cx="485.15" cy="262.08" fill="#ADD1B2" rx="11" ry="11" style="stroke:#181818;stroke-width:1.0;"/><path d="M489.2594,268.08 L481.5406,268.08 L481.5406,255.6894 L489.2594,255.6894 L489.2594,257.8456 L483.9938,257.8456 L483.9938,260.5175 L488.7594,260.5175 L488.7594,262.6738 L483.9938,262.6738 L483.9938,265.9238 L489.2594,265.9238 L489.2594,268.08 Z " fill="#000000"/><text fill="#000000" font-family="sans-serif" font-size="14" lengthAdjust="spacing" textLength="51" x="503.85" y="266.9267">section</text><line style="stroke:#181818;stroke-width:0.5;" x1="450" x2="578" y1="278.08" y2="278.08"/><ellipse cx="460" cy="291.7284" fill="none" rx="3" ry="3" style="stroke:#038048;stroke-width:1.0;"/><text fill="#000000" font-family="sans-serif" font-size="14" lengthAdjust="spacing" textLength="104" x="469" y="295.0751">id : SERIAL [PK]</text><line style="stroke:#181818;stroke-width:0.5;" x1="450" x2="578" y1="302.3769" y2="302.3769"/></g><!--class instructor--><g id="elem_instructor"><rect codeLine="48" fill="#F1F1F1" height="113.1875" id="instructor" rx="2.5" ry="2.5" style="stroke:#181818;stroke-width:0.5;" width="167" x="221.5" y="31.45"/><ellipse cx="267.75" cy="47.45" fill="#ADD1B2" rx="11" ry="11" style="stroke:#181818;stroke-width:1.0;"/><path d="M271.8594,53.45 L264.1406,53.45 L264.1406,41.0594 L271.8594,41.0594 L271.8594,43.2156 L266.5938,43.2156 L266.5938,45.8875 L271.3594,45.8875 L271.3594,48.0438 L266.5938,48.0438 L266.5938,51.2938 L271.8594,51.2938 L271.8594,53.45 Z " fill="#000000"/><text fill="#000000" font-family="sans-serif" font-size="14" lengthAdjust="spacing" textLength="66" x="288.25" y="52.2967">instructor</text><line style="stroke:#181818;stroke-width:0.5;" x1="222.5" x2="387.5" y1="63.45" y2="63.45"/><ellipse cx="232.5" cy="77.0984" fill="none" rx="3" ry="3" style="stroke:#038048;stroke-width:1.0;"/><text fill="#000000" font-family="sans-serif" font-size="14" lengthAdjust="spacing" textLength="104" x="241.5" y="80.4451">id : SERIAL [PK]</text><line style="stroke:#181818;stroke-width:1.0;" x1="222.5" x2="387.5" y1="87.7469" y2="87.7469"/><text fill="#000000" font-family="sans-serif" font-size="14" lengthAdjust="spacing" textLength="151" x="227.5" y="104.742">instructor_name : text</text><text fill="#000000" font-family="sans-serif" font-size="14" lengthAdjust="spacing" textLength="155" x="227.5" y="121.0389">instructor_onyen : text</text><text fill="#000000" font-family="sans-serif" font-size="14" lengthAdjust="spacing" textLength="144" x="227.5" y="137.3357">section_id : INTEGER</text></g><!--link student to section--><g id="link_student_section"><path codeLine="55" d="M559.11,169.5 C552.12,179.11 545.58,189.08 540,199.08 C531.92,213.57 525.82,230.97 521.57,245.67 " fill="none" id="student-section" style="stroke:#181818;stroke-width:1.0;"/><text fill="#000000" font-family="sans-serif" font-size="13" lengthAdjust="spacing" textLength="64" x="541" y="212.1469">section_id</text></g><!--link student to submission--><g id="link_student_submission"><path codeLine="56" d="M629.84,169.37 C625.62,321.04 616.16,635.37 610,645.35 C596.01,668 574.47,685.6 551.36,699.11 " fill="none" id="student-submission" style="stroke:#181818;stroke-width:1.0;"/><text fill="#000000" font-family="sans-serif" font-size="13" lengthAdjust="spacing" textLength="67" x="625" y="353.4469">student_id</text></g><!--link assignment to submission--><g id="link_assignment_submission"><path codeLine="57" d="M368.27,598.57 C369.11,614.48 371.42,630.52 376,645.35 C379.14,655.51 383.8,665.56 389.21,675.09 " fill="none" id="assignment-submission" style="stroke:#181818;stroke-width:1.0;"/><text fill="#000000" font-family="sans-serif" font-size="13" lengthAdjust="spacing" textLength="93" x="377" y="641.4169">assignment_id</text></g><!--link student to extra_time--><g id="link_student_extra_time"><path codeLine="58" d="M659.96,169.42 C675.53,218.22 693.44,282.12 702,340.38 C719.81,461.62 716.82,605.81 713.27,683.25 " fill="none" id="student-extra_time" style="stroke:#181818;stroke-width:1.0;"/><text fill="#000000" font-family="sans-serif" font-size="13" lengthAdjust="spacing" textLength="67" x="705" y="353.4469">student_id</text></g><!--link assignment to extra_time--><g id="link_assignment_extra_time"><path codeLine="59" d="M496.16,580.66 C542.1,614.7 593.48,652.76 634.36,683.05 " fill="none" id="assignment-extra_time" style="stroke:#181818;stroke-width:1.0;"/><text fill="#000000" font-family="sans-serif" font-size="13" lengthAdjust="spacing" textLength="93" x="575" y="641.4169">assignment_id</text></g><!--link section to assignment--><g id="link_section_assignment"><path codeLine="60" d="M494.08,310.6 C481.02,331.17 463.14,359.34 445.36,387.35 " fill="none" id="section-assignment" style="stroke:#181818;stroke-width:1.0;"/><text fill="#000000" font-family="sans-serif" font-size="13" lengthAdjust="spacing" textLength="64" x="475" y="353.4469">section_id</text></g><!--link instructor to assignment--><g id="link_instructor_assignment"><path codeLine="61" d="M244.95,144.71 C205.04,188.78 164.18,252.34 189,310.38 C204.88,347.49 232.48,380.64 261.81,408.12 " fill="none" id="instructor-assignment" style="stroke:#181818;stroke-width:1.0;"/><text fill="#000000" font-family="sans-serif" font-size="13" lengthAdjust="spacing" textLength="71" x="190" y="282.7969">created_by</text></g><!--link instructor to assignment--><g id="link_instructor_assignment"><path codeLine="62" d="M305.79,144.99 C307.26,190.03 311.27,254.75 322,310.38 C326.88,335.67 334.07,362.4 341.72,387.34 " fill="none" id="instructor-assignment-1" style="stroke:#181818;stroke-width:1.0;"/><text fill="#000000" font-family="sans-serif" font-size="13" lengthAdjust="spacing" textLength="107" x="323" y="282.7969">last_modified_by</text></g><!--link instructor to section--><g id="link_instructor_section"><path codeLine="63" d="M367.14,144.99 C403.72,177.93 448.64,218.37 479.09,245.8 " fill="none" id="instructor-section" style="stroke:#181818;stroke-width:1.0;"/><text fill="#000000" font-family="sans-serif" font-size="13" lengthAdjust="spacing" textLength="64" x="441" y="212.1469">section_id</text></g><!--SRC=[hLDDImCn4BttLuIU5DcBq4jlYonQRALiIoyY8Msc6caIIRBGHVhVpNucsTss2bwMcJSlCoylEo0CCpaQxsIcD8mHqQWAqVS8eJl4A9gYLPBEuZbwNJw_MJ2Ax4SG3hPYu6XineaseB02BWtWJ1sQqca4zG1jCchZSa8TNncnPqeR70uwa1vKDyDIv20y67Q6IO7BxhENTVAOf1R-b4nWIapHO3rR9Ajrl5XQ78xCz74ddsZDtWLlRk3IF_b4cRAofChn5p4V3jyfiAFfa3051o1wk5QwmILbUpPCE6D2CswR1t3OhbEa6LpoHsTRpgmfKbGltAPN_6bUhwFG-TlJBZbdDRg9quUdEBsvdqnkYrxjK6mOFwVKEgv8IIYLklI_bTOQ2Y3Tn7FVhEfPAgUg-DnmTuW9RLHM_3tbEPTUqUs8dSNn2h_PdTEeMTieQbLFsyjOyZXWk3zWscv_IV9sfySBt0pwUUzqiL_8w_QhPLkUTwfp2S_P7izjpcLUTvMwx67_VW00]--></g></svg>